<?xml version="1.0" standalone="no"?>
<!DOCTYPE svg PUBLIC "-//W3C//DTD SVG 20010904//EN"
 "http://www.w3.org/TR/2001/REC-SVG-20010904/DTD/svg10.dtd">
<svg version="1.0" xmlns="http://www.w3.org/2000/svg"
 width="231.000000pt" height="231.000000pt" viewBox="0 0 231.000000 231.000000"
 preserveAspectRatio="xMidYMid meet">
<metadata>
Created by potrace 1.13, written by Peter Selinger 2001-2015
</metadata>
<g transform="translate(0.000000,231.000000) scale(0.100000,-0.100000)"
fill="#ffffff" stroke="none">
<path d="M774 1656 c-39 -8 -101 -28 -138 -45 l-66 -32 0 -359 0 -358 59 29
c155 77 347 77 505 0 l76 -37 0 357 0 356 -57 31 c-117 61 -252 82 -379 58z"/>
<path d="M1480 1655 c-41 -8 -104 -29 -140 -47 l-65 -33 -3 -358 c-1 -198 1
-357 5 -355 200 102 363 115 536 42 34 -14 70 -28 80 -31 16 -5 17 14 15 348
l-3 353 -40 23 c-103 59 -257 82 -385 58z"/>
<path d="M437 1604 c-4 -4 -7 -215 -7 -470 0 -412 2 -463 16 -468 9 -3 346 -6
749 -6 653 0 735 2 749 16 12 12 13 20 6 35 -10 18 -30 19 -735 19 l-725 0 -2
438 c-3 431 -3 437 -23 440 -12 2 -24 0 -28 -4z"/>
<path d="M1515 877 c-62 -7 -195 -55 -195 -71 0 -4 120 -6 268 -6 260 0 266 1
243 19 -62 47 -195 72 -316 58z"/>
<path d="M730 857 c-36 -12 -76 -30 -90 -40 -24 -16 -14 -17 250 -17 l275 0
-30 20 c-92 62 -283 79 -405 37z"/>
</g>
</svg>
