<?xml version="1.0" standalone="no"?>
<!DOCTYPE svg PUBLIC "-//W3C//DTD SVG 20010904//EN"
 "http://www.w3.org/TR/2001/REC-SVG-20010904/DTD/svg10.dtd">
<svg version="1.0" xmlns="http://www.w3.org/2000/svg"
 width="231.000000pt" height="231.000000pt" viewBox="0 0 231.000000 231.000000"
 preserveAspectRatio="xMidYMid meet">
<metadata>
Created by potrace 1.13, written by Peter Selinger 2001-2015
</metadata>
<g transform="translate(0.000000,231.000000) scale(0.100000,-0.100000)"
fill="#ffffff" stroke="none">
<path d="M1652 1917 l-32 -33 0 -109 0 -110 38 38 c36 37 37 39 40 126 2 49 0
96 -5 105 -8 14 -14 11 -41 -17z"/>
<path d="M1530 1795 c-34 -35 -35 -38 -38 -132 -2 -52 0 -99 5 -104 5 -5 22 5
41 24 l33 34 -3 107 -3 107 -35 -36z"/>
<path d="M1052 1775 c-241 -45 -447 -242 -508 -485 -24 -96 -15 -272 18 -362
124 -331 468 -507 796 -407 109 34 181 78 268 164 64 64 90 97 123 165 68 140
92 311 52 376 -23 37 -63 50 -103 33 -39 -16 -58 -57 -58 -126 -1 -124 -45
-227 -135 -319 -117 -118 -269 -166 -427 -133 -239 50 -408 293 -368 528 35
207 189 362 390 392 41 6 89 18 107 26 83 40 53 149 -44 158 -21 2 -71 -2
-111 -10z"/>
<path d="M1408 1671 l-38 -41 0 -100 c0 -113 10 -125 55 -66 24 32 26 39 23
141 l-3 108 -37 -42z"/>
<path d="M1425 1410 c-137 -137 -258 -250 -267 -250 -35 0 -17 36 49 97 78 70
77 83 -6 91 -74 7 -113 -4 -161 -45 -104 -89 -106 -233 -5 -321 47 -42 74 -52
136 -52 124 0 213 88 213 210 0 32 -7 68 -16 86 l-17 31 42 41 43 42 87 0 88
0 42 40 42 39 -89 1 c-87 0 -89 0 -72 19 14 16 34 20 112 23 93 3 94 3 131 41
l38 37 -89 0 -89 0 23 25 c22 23 30 25 115 25 91 0 91 0 125 35 l34 35 -130 0
-129 0 -250 -250z"/>
</g>
</svg>
