<?xml version="1.0" standalone="no"?>
<!DOCTYPE svg PUBLIC "-//W3C//DTD SVG 20010904//EN"
 "http://www.w3.org/TR/2001/REC-SVG-20010904/DTD/svg10.dtd">
<svg version="1.0" xmlns="http://www.w3.org/2000/svg"
 width="231.000000pt" height="231.000000pt" viewBox="0 0 231.000000 231.000000"
 preserveAspectRatio="xMidYMid meet">
<metadata>
Created by potrace 1.13, written by Peter Selinger 2001-2015
</metadata>
<g transform="translate(0.000000,231.000000) scale(0.100000,-0.100000)"
fill="#ffffff" stroke="none">
<path d="M1033 1981 c-289 -46 -476 -228 -514 -497 -21 -152 18 -263 174 -491
58 -86 99 -156 103 -179 14 -73 -14 -273 -51 -365 -10 -25 40 -38 190 -50 128
-11 353 -5 367 9 5 5 13 46 19 92 6 47 17 100 25 118 12 29 16 32 41 25 52
-15 325 -9 358 8 35 17 43 56 25 127 -9 36 -8 47 4 61 15 17 16 110 2 143 -14
31 -2 52 36 63 57 16 63 26 39 71 -11 22 -45 68 -75 103 -81 95 -92 121 -75
190 29 116 12 209 -57 318 -68 107 -185 197 -303 234 -74 23 -227 32 -308 20z
m118 -230 c7 -57 37 -85 90 -86 37 -1 44 -5 57 -32 14 -30 14 -33 -12 -63 -37
-45 -32 -93 16 -131 19 -14 19 -18 4 -52 -12 -31 -20 -37 -45 -37 -47 0 -84
-38 -84 -87 0 -36 -3 -42 -34 -57 -34 -16 -35 -16 -65 9 -43 36 -91 30 -129
-17 -14 -18 -20 -19 -53 -8 -32 10 -36 15 -36 45 0 21 -9 44 -24 62 -20 24
-31 28 -69 26 -41 -1 -45 1 -60 33 -16 32 -15 34 2 43 25 14 45 65 37 97 -4
14 -20 38 -37 53 -27 25 -28 30 -18 59 10 29 15 32 49 32 60 0 94 35 95 95 0
41 3 49 28 61 27 14 30 14 63 -15 19 -17 44 -31 55 -31 29 0 77 27 89 50 10
18 14 19 43 7 27 -11 33 -20 38 -56z m255 -459 c6 -4 16 -17 23 -29 9 -17 21
-23 46 -23 37 0 39 -3 36 -62 -2 -27 2 -40 13 -44 24 -9 19 -40 -8 -58 -16
-10 -26 -27 -28 -48 -3 -32 -4 -33 -45 -30 -34 3 -45 -1 -55 -17 -18 -30 -40
-26 -60 10 -15 25 -23 30 -50 27 l-33 -3 3 47 c2 39 -1 49 -18 58 -30 16 -25
44 11 57 29 11 31 15 26 47 -7 41 10 52 49 34 24 -11 29 -10 48 14 23 30 26
31 42 20z"/>
<path d="M942 1610 c-63 -39 -88 -111 -58 -168 53 -101 186 -108 238 -11 35
66 12 146 -53 181 -44 23 -86 23 -127 -2z"/>
<path d="M1353 1190 c-68 -27 -48 -130 26 -130 32 0 71 39 71 70 0 42 -56 76
-97 60z"/>
</g>
</svg>
