<?xml version="1.0" standalone="no"?>
<!DOCTYPE svg PUBLIC "-//W3C//DTD SVG 20010904//EN"
 "http://www.w3.org/TR/2001/REC-SVG-20010904/DTD/svg10.dtd">
<svg version="1.0" xmlns="http://www.w3.org/2000/svg"
 width="231.000000pt" height="231.000000pt" viewBox="0 0 231.000000 231.000000"
 preserveAspectRatio="xMidYMid meet">
<metadata>
Created by potrace 1.13, written by Peter Selinger 2001-2015
</metadata>
<g transform="translate(0.000000,231.000000) scale(0.100000,-0.100000)"
fill="#ffffff" stroke="none">
<path d="M1005 1866 c-272 -63 -481 -266 -552 -536 -22 -87 -22 -263 0 -350
65 -245 239 -432 482 -516 73 -26 92 -28 225 -28 133 0 152 2 225 28 199 69
343 197 431 381 51 106 68 184 68 310 0 126 -17 204 -68 310 -88 185 -234 314
-431 381 -98 33 -281 43 -380 20z m357 -169 c183 -70 310 -214 358 -403 25
-98 25 -180 0 -278 -48 -189 -174 -331 -358 -404 -61 -24 -79 -26 -202 -26
-123 0 -141 2 -202 26 -184 73 -310 215 -358 404 -25 98 -25 180 0 278 54 214
213 371 429 426 20 5 88 8 151 6 95 -2 127 -8 182 -29z"/>
<path d="M987 1503 c-12 -11 -8 -691 3 -698 6 -4 27 3 47 15 44 26 332 230
391 277 48 39 54 69 20 100 -27 24 -333 244 -397 285 -48 30 -54 32 -64 21z"/>
</g>
</svg>
