<?xml version="1.0" standalone="no"?>
<!DOCTYPE svg PUBLIC "-//W3C//DTD SVG 20010904//EN"
 "http://www.w3.org/TR/2001/REC-SVG-20010904/DTD/svg10.dtd">
<svg version="1.0" xmlns="http://www.w3.org/2000/svg"
 width="231.000000pt" height="231.000000pt" viewBox="0 0 231.000000 231.000000"
 preserveAspectRatio="xMidYMid meet">
<metadata>
Created by potrace 1.13, written by Peter Selinger 2001-2015
</metadata>
<g transform="translate(0.000000,231.000000) scale(0.100000,-0.100000)"
fill="#ffffff" stroke="none">
<path d="M1153 1660 c-18 -7 -23 -17 -23 -44 0 -29 5 -38 28 -50 70 -36 119
-124 129 -231 l6 -65 266 0 c194 0 270 3 279 12 8 8 12 64 12 184 0 167 -1
173 -22 188 -19 14 -68 16 -338 15 -173 0 -325 -4 -337 -9z"/>
<path d="M945 1531 c-57 -15 -149 -66 -169 -94 -18 -24 -21 -45 -23 -153 -2
-119 -1 -127 21 -149 30 -29 56 -101 56 -152 0 -38 -4 -44 -51 -78 -35 -25
-72 -41 -119 -51 -37 -7 -75 -16 -83 -20 -21 -8 -64 -91 -82 -159 -16 -64 -20
-181 -6 -189 20 -13 216 -38 346 -45 172 -10 441 3 555 27 l85 17 3 68 c6 129
-51 274 -113 287 -115 26 -142 36 -186 69 -40 29 -49 42 -49 66 0 38 40 136
62 153 24 18 42 86 28 111 -5 11 -10 41 -10 68 0 98 -37 166 -109 202 -44 23
-115 33 -156 22z"/>
</g>
</svg>
