<?xml version="1.0" standalone="no"?>
<!DOCTYPE svg PUBLIC "-//W3C//DTD SVG 20010904//EN"
 "http://www.w3.org/TR/2001/REC-SVG-20010904/DTD/svg10.dtd">
<svg version="1.0" xmlns="http://www.w3.org/2000/svg"
 width="231.000000pt" height="231.000000pt" viewBox="0 0 231.000000 231.000000"
 preserveAspectRatio="xMidYMid meet">
<metadata>
Created by potrace 1.13, written by Peter Selinger 2001-2015
</metadata>
<g transform="translate(0.000000,231.000000) scale(0.100000,-0.100000)"
fill="#ffffff" stroke="none">
<path d="M734 1900 c-12 -4 -31 -21 -43 -36 -21 -27 -21 -28 -21 -685 l0 -659
29 -32 29 -33 441 -3 c495 -3 499 -2 526 62 17 41 22 376 6 376 -5 0 -23 -12
-40 -26 l-30 -25 -3 -152 -3 -152 -440 0 -440 0 0 645 0 645 263 3 262 2 0
-139 c0 -214 7 -221 219 -221 l140 0 3 -112 3 -112 38 33 37 33 0 117 -1 116
-101 115 c-165 188 -168 191 -191 188 -14 -2 -23 -11 -25 -25 -3 -17 24 -55
102 -145 58 -67 106 -125 106 -130 0 -12 -218 -10 -241 2 -18 10 -19 23 -19
185 l0 175 -292 -1 c-161 0 -303 -4 -314 -9z"/>
<path d="M813 1405 c-3 -9 -1 -21 4 -26 5 -5 101 -8 234 -7 216 3 224 4 224
23 0 19 -8 20 -228 23 -200 2 -228 0 -234 -13z"/>
<path d="M1732 1264 c-12 -8 -22 -19 -22 -23 0 -17 121 -171 134 -171 7 0 24
8 37 19 l23 18 -64 87 c-35 47 -69 86 -75 86 -6 0 -21 -7 -33 -16z"/>
<path d="M817 1264 c-4 -4 -7 -16 -7 -26 0 -17 14 -18 236 -18 l235 0 -3 23
c-3 22 -3 22 -229 25 -124 1 -228 -1 -232 -4z"/>
<path d="M1451 1055 c-100 -74 -181 -141 -181 -148 0 -23 121 -177 134 -170 6
3 93 67 194 141 114 85 181 140 178 149 -11 28 -119 163 -131 163 -7 0 -94
-61 -194 -135z"/>
<path d="M823 1113 c-7 -2 -13 -13 -13 -24 0 -18 10 -19 235 -19 224 0 235 1
235 19 0 10 -7 22 -16 25 -19 7 -423 7 -441 -1z"/>
<path d="M1200 799 c-12 -44 -19 -83 -16 -87 3 -3 43 -7 88 -10 71 -4 80 -3
75 11 -6 17 -115 167 -121 167 -2 0 -14 -36 -26 -81z"/>
</g>
</svg>
