<?xml version="1.0" standalone="no"?>
<!DOCTYPE svg PUBLIC "-//W3C//DTD SVG 20010904//EN"
 "http://www.w3.org/TR/2001/REC-SVG-20010904/DTD/svg10.dtd">
<svg version="1.0" xmlns="http://www.w3.org/2000/svg"
 width="231.000000pt" height="231.000000pt" viewBox="0 0 231.000000 231.000000"
 preserveAspectRatio="xMidYMid meet">
<metadata>
Created by potrace 1.13, written by Peter Selinger 2001-2015
</metadata>
<g transform="translate(0.000000,231.000000) scale(0.100000,-0.100000)"
fill="#ffffff" stroke="none">
<path d="M1036 1954 c-256 -62 -435 -320 -398 -574 16 -113 46 -181 128 -289
70 -93 134 -211 150 -276 15 -65 16 -65 244 -65 236 0 225 -4 254 89 27 85 68
158 144 258 108 142 146 273 123 422 -47 304 -348 507 -645 435z m299 -137
c87 -42 159 -112 197 -193 78 -167 54 -318 -76 -479 -47 -59 -129 -205 -150
-267 -5 -16 -21 -18 -146 -18 -125 0 -141 2 -146 18 -21 63 -102 208 -150 267
-131 162 -155 317 -74 482 53 108 168 199 284 223 78 17 184 3 261 -33z"/>
<path d="M1048 1762 c-68 -25 -129 -72 -166 -127 -54 -81 -68 -170 -27 -170
14 0 24 14 40 59 12 33 38 79 59 103 56 65 105 86 210 93 93 5 110 15 81 44
-22 22 -135 21 -197 -2z"/>
<path d="M940 613 c0 -9 8 -25 17 -36 17 -18 17 -19 0 -32 -21 -15 -22 -41 -2
-49 20 -7 19 -46 -1 -46 -11 0 -14 -8 -12 -27 4 -38 89 -80 175 -89 118 -13
255 34 261 89 2 19 -1 27 -12 27 -8 0 -17 4 -20 9 -9 14 4 41 20 41 8 0 14 9
14 20 0 13 -7 20 -20 20 -14 0 -20 7 -20 21 0 12 8 23 20 26 11 3 20 14 20 24
0 18 -11 19 -220 19 -199 0 -220 -2 -220 -17z"/>
</g>
</svg>
